<?xml version="1.0" standalone="no"?>
<!DOCTYPE svg PUBLIC "-//W3C//DTD SVG 20010904//EN"
 "http://www.w3.org/TR/2001/REC-SVG-20010904/DTD/svg10.dtd">
<svg version="1.0" xmlns="http://www.w3.org/2000/svg"
 width="250.000000pt" height="250.000000pt" viewBox="0 0 250.000000 250.000000"
 preserveAspectRatio="xMidYMid meet">
<metadata>
Created by potrace 1.14, written by Peter Selinger 2001-2017
</metadata>
<g transform="translate(0.000000,250.000000) scale(0.100000,-0.100000)"
fill="#000000" stroke="none">
<path d="M1727 2153 c-1 0 -150 -4 -332 -8 -378 -7 -345 -4 -495 -43 -63 -17
-122 -30 -130 -30 -8 0 -35 -5 -60 -11 -25 -6 -56 -14 -70 -17 -13 -3 -28 -11
-32 -17 -4 -7 -8 -8 -8 -3 0 5 -6 3 -13 -3 -8 -6 -24 -13 -38 -15 -13 -3 -24
-5 -24 -6 0 -1 -17 -6 -48 -13 -6 -1 -18 -6 -24 -10 -7 -5 -13 -6 -13 -3 0 2
-15 0 -32 -5 -18 -6 -57 -17 -87 -25 -61 -16 -80 -35 -74 -73 2 -14 4 -38 4
-53 0 -16 6 -28 12 -28 7 0 6 -4 -3 -10 -8 -5 -10 -10 -5 -10 6 0 11 -24 13
-53 4 -61 9 -112 12 -112 1 0 3 -20 5 -45 2 -25 4 -45 5 -45 1 0 3 -16 5 -35
5 -45 14 -124 21 -175 9 -68 15 -129 16 -162 1 -18 4 -33 7 -33 4 0 7 -17 7
-37 1 -38 11 -128 14 -128 1 0 3 -18 5 -40 4 -35 8 -79 19 -187 1 -15 5 -30 8
-34 4 -3 4 -12 2 -19 -3 -7 -1 -16 4 -19 6 -3 8 -14 5 -24 -7 -29 17 -43 97
-57 27 -5 64 -13 245 -51 66 -13 136 -27 155 -30 19 -3 53 -10 75 -16 22 -5
51 -12 65 -13 14 -2 58 -11 97 -19 40 -9 87 -18 105 -21 18 -3 67 -13 108 -21
41 -9 85 -18 97 -19 11 -2 29 -5 40 -9 53 -15 101 -16 116 -1 9 8 19 15 22 15
4 0 17 9 29 20 11 10 50 41 86 67 36 26 67 50 70 53 3 3 88 68 190 145 211
159 205 154 230 177 19 17 20 37 5 173 -3 28 -7 75 -10 105 -3 30 -8 75 -10
100 -3 25 -7 71 -10 103 -2 32 -7 77 -10 100 -3 23 -7 67 -9 97 -3 30 -8 89
-12 130 -5 41 -8 96 -8 122 -1 27 -4 48 -7 48 -3 0 -6 19 -8 43 -5 83 -18 223
-24 261 -2 10 -10 22 -19 27 -12 7 -374 9 -381 2z"/>
</g>
</svg>
