<svg xmlns="http://www.w3.org/2000/svg" version="1.1" xmlns:xlink="http://www.w3.org/1999/xlink" xmlns:svgjs="http://svgjs.com/svgjs" width="1440" height="560" preserveAspectRatio="none" viewBox="0 0 1440 560"><g mask="url(&quot;#SvgjsMask1846&quot;)" fill="none"><rect width="1440" height="560" x="0" y="0" fill="url(#SvgjsLinearGradient1847)"></rect><path d="M-90.23 78.99C66.78 82.47 246.46 281.15 498.79 297.39 751.12 313.63 694.77 551.26 793.3 571.29" stroke="rgba(184, 184, 184, 1)" stroke-width="2"></path><path d="M-268.39 153.26C-76.95 154.1 175.09 299.79 481.16 310.06 787.22 320.33 733.19 617.2 855.93 639.47" stroke="rgba(184, 184, 184, 1)" stroke-width="2"></path><path d="M-234.18 471.33C-78.59 469.58 134.8 296.81 363.51 297.73 592.22 298.65 551.79 617.9 662.36 653.46" stroke="rgba(184, 184, 184, 1)" stroke-width="2"></path><path d="M-87.05 443.43C99.82 438.53 344.11 168.44 608.53 169.03 872.95 169.62 823.27 567.91 956.32 616.77" stroke="rgba(184, 184, 184, 1)" stroke-width="2"></path><path d="M-52.15 216.31C122.39 220.08 335.11 447.79 603.32 457.11 871.54 466.43 836.57 640.53 931.06 647.25" stroke="rgba(184, 184, 184, 1)" stroke-width="2"></path></g><defs><mask id="SvgjsMask1846"><rect width="1440" height="560" fill="#ffffff"></rect></mask><linearGradient x1="50%" y1="0%" x2="50%" y2="100%" gradientUnits="userSpaceOnUse" id="SvgjsLinearGradient1847"><stop stop-color="rgba(250, 250, 250, 1)" offset="0"></stop><stop stop-color="rgba(230, 230, 230, 1)" offset="1"></stop></linearGradient></defs></svg>